<svg viewBox="0 0 30 30" fill="none" xmlns="http://www.w3.org/2000/svg"><g clip-path="url(#clip0_181_4756)" fill="#0B1A46"><path fill-rule="evenodd" clip-rule="evenodd" d="M15.555 14.07c.321-.496.895-1.202 2.178-1.202 1.591 0 2.785 1.04 2.786 3.273v4.172H18.1v-3.892c0-.979-.35-1.646-1.225-1.646-.668 0-1.065.45-1.24.885-.066.156-.08.374-.08.59v4.065h-2.418s.032-6.594 0-7.275h2.418v1.03zm-.017.025h.015v-.025a.068.068 0 0 1-.009.015l-.006.01z"/><path d="M11.797 13.04H9.38v7.275h2.418V13.04zm-2.56-2.25c0-.715.54-1.257 1.367-1.257.828 0 1.336.543 1.353 1.256 0 .698-.526 1.257-1.369 1.257h-.016c-.81 0-1.336-.559-1.336-1.257z"/><path fill-rule="evenodd" clip-rule="evenodd" d="M15 0C6.729 0 0 6.729 0 15c0 8.27 6.729 15 15 15 8.27 0 15-6.73 15-15 0-8.271-6.728-15-15-15zm7.954 21.785c0 .638-.529 1.154-1.183 1.154H8.127c-.652 0-1.182-.516-1.182-1.154V7.982c0-.637.53-1.154 1.182-1.154h13.644c.653 0 1.183.517 1.183 1.154v13.803z"/></g><defs><clipPath id="clip0_181_4756"><path fill="#fff" d="M0 0H30V30H0z"/></clipPath></defs></svg>