<svg viewBox="0 0 30 30" fill="none" xmlns="http://www.w3.org/2000/svg"><g clip-path="url(#clip0_250_3942)"><path d="M28.774 13.039L2.39.169A1.662 1.662 0 0 0 0 1.661v.048c0 .223.027.445.081.661l2.531 10.124c.07.276.303.48.586.512l11.124 1.236a.762.762 0 0 1 0 1.514L3.198 16.993a.682.682 0 0 0-.586.512L.082 27.63A2.728 2.728 0 0 0 0 28.29v.048a1.662 1.662 0 0 0 2.39 1.494l26.384-12.87a2.183 2.183 0 0 0 0-3.923z" fill="#0B1A46"/></g><defs><clipPath id="clip0_250_3942"><path fill="#fff" d="M0 0H30V30H0z"/></clipPath></defs></svg>