<svg viewBox="0 0 30 30" fill="none" xmlns="http://www.w3.org/2000/svg"><path d="M25.859 20.88c-1.813-1.55-3.652-2.489-5.442-.94l-1.069.935c-.782.679-2.236 3.851-7.858-2.616-5.62-6.459-2.276-7.465-1.493-8.138l1.075-.936c1.78-1.552 1.109-3.504-.175-5.515l-.775-1.217C8.832.447 7.426-.87 5.642.679l-.966.843c-.789.575-2.994 2.443-3.53 5.993-.643 4.26 1.388 9.137 6.042 14.488 4.647 5.354 9.198 8.043 13.509 7.996 3.582-.038 5.746-1.96 6.423-2.66l.968-.844c1.78-1.547.674-3.123-1.14-4.677l-1.09-.938z" fill="#0B1A46"/></svg>