<svg viewBox="0 0 30 30" fill="none" xmlns="http://www.w3.org/2000/svg"><g clip-path="url(#clip0_241_3620)"><path fill-rule="evenodd" clip-rule="evenodd" d="M15 0c8.279 0 15 6.722 15 15 0 8.279-6.721 15-15 15-8.278 0-15-6.721-15-15C0 6.722 6.722 0 15 0zm-.132 20.366a1.702 1.702 0 1 0 0 3.404 1.702 1.702 0 0 0 0-3.404zm1.588-3c0-1.483.908-1.989 1.62-2.554.975-.772 1.774-1.605 1.995-2.949.246-1.5-.09-2.656-.676-3.524-.878-1.301-2.392-1.967-3.73-2.062-4.675-.335-5.774 4.22-5.774 4.22a1.5 1.5 0 0 0 2.917.704s.503-2.085 2.643-1.932c.514.037 1.12.248 1.457.748.225.333.297.786.202 1.36-.054.332-.263.539-.483.74-.291.264-.623.503-.946.767-1.159.945-2.225 2.104-2.225 4.482v.563c0 .849.681 1.5 1.5 1.5s1.5-.66 1.5-1.496v-.567z" fill="#0B1A46"/></g><defs><clipPath id="clip0_241_3620"><path fill="#fff" d="M0 0H30V30H0z"/></clipPath></defs></svg>