<svg viewBox="0 0 30 30" fill="none" xmlns="http://www.w3.org/2000/svg"><g clip-path="url(#clip0_181_4758)" fill="#0B1A46"><path d="M10.783 7.324H8.446l10.758 15.389h2.337L10.783 7.323z"/><path fill-rule="evenodd" clip-rule="evenodd" d="M0 15C0 6.716 6.716 0 15 0c8.284 0 15 6.716 15 15 0 8.284-6.716 15-15 15-8.284 0-15-6.716-15-15zm23.062-8.822l-6.421 7.465 6.984 10.163h-5.137l-4.703-6.844-5.888 6.844H6.376l6.734-7.827-6.734-9.8h5.136l4.453 6.48 5.576-6.48h1.521z"/></g><defs><clipPath id="clip0_181_4758"><path fill="#fff" d="M0 0H30V30H0z"/></clipPath></defs></svg>