<svg viewBox="0 0 30 30" fill="none" xmlns="http://www.w3.org/2000/svg"><g clip-path="url(#clip0_241_3625)"><path d="M27.575 0H18.69a2.425 2.425 0 0 0-2.425 2.425v8.887a2.425 2.425 0 0 0 2.425 2.424h8.886A2.425 2.425 0 0 0 30 11.311V2.426A2.425 2.425 0 0 0 27.575 0zM11.311 0H2.425A2.425 2.425 0 0 0 0 2.425v8.887a2.425 2.425 0 0 0 2.425 2.424h8.887a2.425 2.425 0 0 0 2.424-2.425V2.426A2.425 2.425 0 0 0 11.311 0zm16.264 16.264H18.69a2.425 2.425 0 0 0-2.425 2.425v8.886A2.425 2.425 0 0 0 18.689 30h8.886A2.425 2.425 0 0 0 30 27.575V18.69a2.425 2.425 0 0 0-2.425-2.425zm-16.264 0H2.425A2.425 2.425 0 0 0 0 18.689v8.886A2.425 2.425 0 0 0 2.425 30h8.887a2.425 2.425 0 0 0 2.424-2.425V18.69a2.425 2.425 0 0 0-2.425-2.425z" fill="#0B1A46"/></g><defs><clipPath id="clip0_241_3625"><path fill="#fff" d="M0 0H30V30H0z"/></clipPath></defs></svg>