<svg viewBox="0 0 30 30" fill="none" xmlns="http://www.w3.org/2000/svg"><g clip-path="url(#clip0_252_4673)" fill="#FF740D"><path fill-rule="evenodd" clip-rule="evenodd" d="M20.663.04A1.5 1.5 0 0 1 22.5 1.5v28.308H15v-4.5a1.5 1.5 0 0 0-1.5-1.5h-3a1.5 1.5 0 0 0-1.5 1.5v4.5H.75a.75.75 0 0 1 0-1.5h.75V5.654a1.5 1.5 0 0 1 1.163-1.461l18-4.154zM6 9.557a.75.75 0 0 1 .75-.75h1.5a.75.75 0 0 1 .75.75v1.5a.75.75 0 0 1-.75.75h-1.5a.75.75 0 0 1-.75-.75v-1.5zm.75 3.75a.75.75 0 0 0-.75.75v1.5c0 .414.336.75.75.75h1.5a.75.75 0 0 0 .75-.75v-1.5a.75.75 0 0 0-.75-.75h-1.5zM6 18.558a.75.75 0 0 1 .75-.75h1.5a.75.75 0 0 1 .75.75v1.5a.75.75 0 0 1-.75.75h-1.5a.75.75 0 0 1-.75-.75v-1.5zm5.25-9.75a.75.75 0 0 0-.75.75v1.5c0 .414.336.75.75.75h1.5a.75.75 0 0 0 .75-.75v-1.5a.75.75 0 0 0-.75-.75h-1.5zm-.75 5.25a.75.75 0 0 1 .75-.75h1.5a.75.75 0 0 1 .75.75v1.5a.75.75 0 0 1-.75.75h-1.5a.75.75 0 0 1-.75-.75v-1.5zm.75 3.75a.75.75 0 0 0-.75.75v1.5c0 .414.336.75.75.75h1.5a.75.75 0 0 0 .75-.75v-1.5a.75.75 0 0 0-.75-.75h-1.5zM15 9.558a.75.75 0 0 1 .75-.75h1.5a.75.75 0 0 1 .75.75v1.5a.75.75 0 0 1-.75.75h-1.5a.75.75 0 0 1-.75-.75v-1.5zm.75 3.75a.75.75 0 0 0-.75.75v1.5c0 .414.336.75.75.75h1.5a.75.75 0 0 0 .75-.75v-1.5a.75.75 0 0 0-.75-.75h-1.5zm-.75 5.25a.75.75 0 0 1 .75-.75h1.5a.75.75 0 0 1 .75.75v1.5a.75.75 0 0 1-.75.75h-1.5a.75.75 0 0 1-.75-.75v-1.5z"/><path d="M24 29.808V5.344l3.67 1.836a1.5 1.5 0 0 1 .83 1.341v19.787h.75a.75.75 0 0 1 0 1.5H24z"/></g><defs><clipPath id="clip0_252_4673"><path fill="#fff" d="M0 0H30V30H0z"/></clipPath></defs></svg>