<svg viewBox="0 0 30 30" fill="none" xmlns="http://www.w3.org/2000/svg"><g clip-path="url(#clip0_241_3614)"><path d="M2.188 28.714h3.125A2.19 2.19 0 0 0 7.5 26.526V12.151a2.19 2.19 0 0 0-2.187-2.187H2.188A2.19 2.19 0 0 0 0 12.15v14.375a2.19 2.19 0 0 0 2.188 2.188zM15.976.9c-1.25 0-1.875.625-1.875 3.75 0 2.97-2.876 5.36-4.726 6.591v15.486c2.001.926 6.008 2.298 12.226 2.298h2a4.992 4.992 0 0 0 4.925-4.15l1.4-8.125c.525-3.062-1.825-5.85-4.925-5.85h-5.9s.938-1.875.938-5c0-3.75-2.813-5-4.063-5z" fill="#0B1A46"/></g><defs><clipPath id="clip0_241_3614"><path fill="#fff" d="M0 0H30V30H0z"/></clipPath></defs></svg>