<svg viewBox="0 0 30 30" fill="none" xmlns="http://www.w3.org/2000/svg"><g clip-path="url(#clip0_350_3583)" fill="#0B1A46"><path d="M15.427 15.313c.238-.014.471-.02.7-.02.755 0 1.46.072 2.102.209-.253 3.006-1.766 3.458-2.928 3.52-1.262.069-2.576-.485-2.64-1.676-.062-1.136 1.024-1.934 2.766-2.033z"/><path fill-rule="evenodd" clip-rule="evenodd" d="M0 15C0 6.716 6.716 0 15 0c8.284 0 15 6.716 15 15 0 8.284-6.716 15-15 15-8.284 0-15-6.716-15-15zm15.17 11.387h.006v-.001h.006c3.02-.02 5.15-.796 6.903-2.513 2.296-2.247 2.226-5.064 1.47-6.793-.543-1.24-1.577-2.247-2.992-2.912a8.386 8.386 0 0 0-.304-.136c-.18-3.239-1.985-5.093-5.017-5.112H15.2c-1.814 0-3.322.76-4.25 2.14l1.667 1.121c.694-1.031 1.782-1.251 2.584-1.251h.028c.998.006 1.751.29 2.238.845.355.404.593.962.71 1.667a13 13 0 0 0-2.866-.136c-1.388.078-2.563.502-3.4 1.225-.873.756-1.321 1.794-1.26 2.924.064 1.16.654 2.16 1.663 2.813.853.552 1.952.822 3.093.76 1.507-.081 2.698-.653 3.538-1.698.63-.784 1.037-1.824 1.218-3.105.721.425 1.256.986 1.55 1.66.5 1.142.53 3.02-1.034 4.551-1.37 1.342-3.016 1.922-5.505 1.94-2.76-.02-4.847-.888-6.205-2.579C7.7 20.214 7.043 17.927 7.018 15c.024-2.927.681-5.214 1.952-6.798 1.358-1.691 3.445-2.559 6.205-2.578 4.182.03 6.832 1.95 7.88 5.708l1.935-.54c-.618-2.218-1.739-3.964-3.33-5.188-1.694-1.303-3.873-1.973-6.478-1.99h-.013c-3.397.023-6.01 1.143-7.764 3.33-1.563 1.947-2.368 4.654-2.395 8.049v.016c.027 3.394.832 6.102 2.395 8.048 1.755 2.188 4.367 3.308 7.765 3.33z"/></g><defs><clipPath id="clip0_350_3583"><path fill="#fff" d="M0 0H30V30H0z"/></clipPath></defs></svg>