<svg viewBox="0 0 30 30" fill="none" xmlns="http://www.w3.org/2000/svg"><g clip-path="url(#clip0_238_3193)"><path d="M29.681 12.538l-6.574 6.408 1.553 9.051a1.057 1.057 0 0 1-1.532 1.113L15 24.835l-8.127 4.272a1.056 1.056 0 0 1-1.531-1.112l1.552-9.05-6.575-6.408a1.056 1.056 0 0 1 .586-1.8l9.085-1.32 4.063-8.234c.356-.72 1.538-.72 1.894 0l4.063 8.234 9.085 1.32a1.057 1.057 0 0 1 .586 1.8z" fill="#0B1A46"/></g><defs><clipPath id="clip0_238_3193"><path fill="#fff" d="M0 0H30V30H0z"/></clipPath></defs></svg>