<svg fill="none" viewBox="0 0 30 30" xmlns="http://www.w3.org/2000/svg" xmlns:xlink="http://www.w3.org/1999/xlink"><clipPath id="a"><path d="m0 0h30v30h-30z"/></clipPath><g clip-path="url(#a)" fill="#0b1a46"><path d="m22.917 11.07c-.043-.949-.201-1.464-.334-1.806a3.012 3.012 0 0 0 -.728-1.119 3.013 3.013 0 0 0 -1.119-.728c-.342-.133-.858-.29-1.806-.334-1.026-.047-1.333-.057-3.93-.057s-2.905.01-3.93.057c-.949.043-1.464.201-1.806.334a3.013 3.013 0 0 0 -1.119.728c-.34.34-.551.665-.728 1.119-.133.342-.29.857-.334 1.806-.047 1.025-.057 1.333-.057 3.93s.01 2.904.057 3.93c.043.948.201 1.464.334 1.806.177.454.388.779.728 1.119s.665.551 1.119.728c.342.133.857.29 1.806.334 1.025.047 1.332.057 3.93.057s2.905-.01 3.93-.057c.948-.043 1.464-.201 1.806-.334a3.012 3.012 0 0 0 1.119-.728c.34-.34.551-.665.728-1.119.133-.342.29-.858.334-1.806.047-1.026.057-1.333.057-3.93s-.01-2.905-.057-3.93zm-7.917 8.923a4.994 4.994 0 1 1 0-9.988 4.994 4.994 0 0 1 0 9.988zm5.192-9.019a1.167 1.167 0 1 1 0-2.335 1.167 1.167 0 0 1 0 2.335zm-5.192.784a3.242 3.242 0 1 0 0 6.484 3.242 3.242 0 0 0 0-6.484z"/><path d="m15 0c-8.284 0-15 6.716-15 15s6.716 15 15 15 15-6.716 15-15-6.716-15-15-15zm9.668 19.01c-.047 1.035-.212 1.743-.452 2.361a4.775 4.775 0 0 1 -1.122 1.723c-.54.541-1.083.873-1.723 1.122-.618.24-1.325.405-2.36.452-1.038.047-1.37.059-4.011.059s-2.973-.012-4.01-.059c-1.036-.047-1.743-.212-2.361-.452a4.775 4.775 0 0 1 -1.723-1.122 4.776 4.776 0 0 1 -1.122-1.723c-.24-.618-.405-1.325-.452-2.36-.047-1.038-.059-1.37-.059-4.011s.012-2.973.059-4.01c.047-1.036.212-1.743.452-2.361a4.776 4.776 0 0 1 1.122-1.723 4.776 4.776 0 0 1 1.723-1.122c.618-.24 1.325-.405 2.36-.452 1.038-.047 1.37-.059 4.011-.059s2.973.012 4.01.059c1.035.047 1.743.212 2.361.452.64.249 1.182.581 1.723 1.122.541.54.873 1.083 1.122 1.723.24.618.405 1.325.452 2.36.047 1.038.059 1.37.059 4.011s-.012 2.973-.059 4.01z"/></g></svg>