<svg viewBox="0 0 30 30" fill="none" xmlns="http://www.w3.org/2000/svg"><path d="M30 24.454a1.364 1.364 0 0 1-1.364 1.364H12.273a1.364 1.364 0 0 1-1.364-1.364 8.182 8.182 0 0 1 8.182-8.181h2.727A8.182 8.182 0 0 1 30 24.454zM20.454 4a5.454 5.454 0 1 0 0 10.909 5.454 5.454 0 0 0 0-10.909zM8.182 4a5.455 5.455 0 1 0 0 10.909A5.455 5.455 0 0 0 8.182 4zm0 20.454a10.827 10.827 0 0 1 3.204-7.704 7.405 7.405 0 0 0-2.604-.477h-1.2A7.595 7.595 0 0 0 0 23.855v.6a1.364 1.364 0 0 0 1.364 1.363h7.063a4.091 4.091 0 0 1-.245-1.364z" fill="#FF740D"/></svg>