<svg viewBox="0 0 30 30" fill="none" xmlns="http://www.w3.org/2000/svg"><path d="M25.609 11.25h-1.875v-2.5c0-4.825-3.925-8.75-8.75-8.75s-8.75 3.925-8.75 8.75v2.5H4.359a.625.625 0 0 0-.625.625V27.5c0 1.379 1.121 2.5 2.5 2.5h17.5c1.379 0 2.5-1.121 2.5-2.5V11.875a.625.625 0 0 0-.625-.625zm-8.754 13.056a.627.627 0 0 1-.621.694h-2.5a.625.625 0 0 1-.621-.694l.394-3.546a2.473 2.473 0 0 1-1.023-2.01c0-1.379 1.121-2.5 2.5-2.5s2.5 1.121 2.5 2.5c0 .808-.383 1.545-1.023 2.01l.394 3.546zm3.129-13.056h-10v-2.5c0-2.757 2.243-5 5-5s5 2.243 5 5v2.5z" fill="#FD443C"/></svg>