<svg viewBox="0 0 30 30" fill="none" xmlns="http://www.w3.org/2000/svg"><path d="M26.762 21.141a8.373 8.373 0 0 1-2.974-6.406V11.25c0-4.399-3.268-8.04-7.5-8.65V1.25a1.25 1.25 0 1 0-2.5 0V2.6c-4.234.61-7.5 4.251-7.5 8.65v3.485a8.382 8.382 0 0 1-2.985 6.416 2.183 2.183 0 0 0-.765 1.661A2.19 2.19 0 0 0 4.725 25H25.35a2.19 2.19 0 0 0 2.188-2.188c0-.64-.28-1.245-.776-1.67zM1.288 12.353a1.25 1.25 0 0 0 2.5 0A13.04 13.04 0 0 1 7.63 3.07a1.249 1.249 0 1 0-1.767-1.767 15.523 15.523 0 0 0-4.576 11.048zm25 0a1.25 1.25 0 0 0 2.5 0c0-4.174-1.625-8.098-4.577-11.05a1.249 1.249 0 1 0-1.767 1.768 13.042 13.042 0 0 1 3.844 9.281zM19.63 26.25A4.695 4.695 0 0 1 15.038 30a4.695 4.695 0 0 1-4.593-3.75h9.185z" fill="#FD443C"/></svg>