<svg viewBox="0 0 30 30" fill="none" xmlns="http://www.w3.org/2000/svg"><g clip-path="url(#clip0_400_3575)"><path d="M28.77 22.815c-.83-.83-3.446-2.761-6.043-4.256-.028.042-.056.084-.084.13 2.93-4.72 2.353-11.005-1.748-15.107-4.782-4.776-12.53-4.776-17.31 0-4.782 4.786-4.777 12.53 0 17.311 4.063 4.06 10.264 4.673 14.97 1.833 1.355 2.353 3.329 5.114 4.262 6.047a4.215 4.215 0 0 0 5.953-.005 4.215 4.215 0 0 0 0-5.953zm-11.1-5.147a7.677 7.677 0 0 1-10.856-.005 7.671 7.671 0 0 1 0-10.851 7.675 7.675 0 0 1 10.851 0c3 3 3 7.86.005 10.856z" fill="#0B1A46"/></g><defs><clipPath id="clip0_400_3575"><path fill="#fff" d="M0 0H30V30H0z"/></clipPath></defs></svg>