<svg viewBox="0 0 30 30" fill="none" xmlns="http://www.w3.org/2000/svg"><g clip-path="url(#clip0_250_3950)" fill="#0B1A46"><path d="M12.188 10.313a1.875 1.875 0 1 1-3.75 0 1.875 1.875 0 0 1 3.75 0zm7.5 1.874a1.875 1.875 0 1 0 0-3.75 1.875 1.875 0 0 0 0 3.75zM15 21.563A6.562 6.562 0 0 0 21.563 15h1.875a8.438 8.438 0 0 1-16.875 0h1.875A6.562 6.562 0 0 0 15 21.563z"/><path fill-rule="evenodd" clip-rule="evenodd" d="M0 15C0 6.716 6.716 0 15 0c8.284 0 15 6.716 15 15 0 8.284-6.716 15-15 15-8.284 0-15-6.716-15-15zm1.875 0c0 7.249 5.876 13.125 13.125 13.125S28.125 22.249 28.125 15 22.249 1.875 15 1.875 1.875 7.751 1.875 15z"/></g><defs><clipPath id="clip0_250_3950"><path fill="#fff" d="M0 0H30V30H0z"/></clipPath></defs></svg>