<svg viewBox="0 0 233 233" fill="none" xmlns="http://www.w3.org/2000/svg"><g opacity=".1"><path d="M40.5 149.576C28.987 159.29 12.567 163.26 3.68 164.324c-1.333.16-1.977 1.439-.853 2.174 4.628 3.027 16.345 5.245 22.172 6.078 7 1 6 4.5 4.5 5.5-.765.51-4.78 1.15-9.194 1.853-4.243.676-8.856 1.412-11.306 2.147-.884.265-1.46.617-1.8 1.018-1.45 1.085-2.424 5.283 3.3 9.481 7.5 5.5 21 10 34 10.5 4.98.192 9.518.163 13.308.139 6.105-.038 10.267-.064 11.192.861 1.5 1.5-5.5 4.5-9 5.5s-2 2 3.5 2c.966 0 2.025-.031 3.119-.063 5.135-.149 11.057-.322 11.88 2.563.257.898.481 1.993.714 3.134.675 3.306 1.428 6.994 3.287 7.366 2.5.5 17.5 1.5 34 0 13.2-1.2 19.758-4.252 30-11.5 9.854-6.973 13.936-13.71 19.71-23.239a655.02 655.02 0 0 1 2.29-3.761c3.653-5.943 4.1-12.173 4.528-18.136.205-2.858.406-5.656.953-8.331 7.773-.628 13.736-2.473 17.626-4.283 1.573-.731 1.196-2.893-.45-3.437-2.701-.894-6.206-2.283-10.026-4.278a27.077 27.077 0 0 1 3.869-2.535c11.097-6.053 22.421-9.844 30.624-12.591 3.994-1.337 7.248-2.427 9.376-3.409 6.5-3 10.5-8.5 4-10s-9.419-1.5-15.5-1.5c-5.5 0-9-3 0-7.5 2.229-1.114 4.673-2.168 6.974-3.159 6.991-3.013 12.668-5.46 7.026-7.34-7.833 0-26.7.799-39.5 3.999-8.826 2.207-17.652 4.413-28.659 10.48-3.09-9.202-11.666-19.556-13.341-29.979-.844-5.248-1.441-9.886-1.973-14.019C141.72 52.14 140.633 43.702 132 36.076c-12.987-6.768-16.513-6.768-29.5 0-16.077 8.378-16.998 17.737-19.145 39.571a951.29 951.29 0 0 1-.855 8.429c-3 28-26 52-42 65.5zm-20.327-30.692c.553 2.012 2.384 3.408 4.686 3.852-.06.305-.054.62.03.928.343 1.249 1.836 1.927 3.333 1.515 1.498-.411 2.434-1.756 2.091-3.005a1.92 1.92 0 0 0-.03-.098c3.212-1.415 5.112-4.407 4.354-7.166-.758-2.759-3.92-4.36-7.403-3.936l-.01-.04-.015-.06c-.343-1.248-1.835-1.926-3.333-1.515-1.497.412-2.434 1.757-2.09 3.005.084.309.24.583.447.814-1.752 1.558-2.612 3.694-2.06 5.706zm191.686 56.852c-2.302-.444-4.133-1.84-4.686-3.852-.552-2.012.308-4.148 2.06-5.706a2.007 2.007 0 0 1-.448-.814c-.343-1.248.594-2.593 2.091-3.005 1.498-.411 2.99.267 3.333 1.515l.016.06.009.04c3.483-.424 6.646 1.177 7.403 3.936.758 2.759-1.142 5.751-4.353 7.166l.021.069.009.029c.342 1.249-.594 2.594-2.092 3.005-1.497.412-2.99-.266-3.333-1.515a2.011 2.011 0 0 1-.03-.928zm-34.611 38.09c.318 1.156 1.37 1.958 2.692 2.213-.035.176-.031.356.017.534.197.717 1.054 1.106 1.915.87.86-.236 1.398-1.009 1.201-1.726l-.017-.057c1.845-.812 2.936-2.531 2.501-4.116-.435-1.585-2.252-2.505-4.253-2.261l-.005-.023-.009-.034c-.197-.718-1.054-1.107-1.915-.871-.86.237-1.398 1.009-1.201 1.726.049.178.138.335.257.468-1.006.895-1.5 2.122-1.183 3.277z" fill="#0B1A46"/></g><mask id="a" style="mask-type:alpha" maskUnits="userSpaceOnUse" x="12" y="27" width="175" height="186"><path d="M47.255 136.422c-10.567 8.916-25.638 12.56-33.794 13.537-1.224.147-1.815 1.321-.783 1.996 4.248 2.778 15.002 4.814 20.35 5.578 6.426.918 5.508 4.13 4.131 5.048-1.377.918-14.227 2.295-18.816 3.672-3.672 1.101-1.53 3.824 0 5.048l67.921.918c1.071 10.861 3.121 33.616 2.754 36.186-.367 2.57 1.488 3.602 4.13 4.13 3.213.643 8.72.389 12.392 0 3.285-.348 4.436-2.142 4.589-3.212v-7.733h1.836c-.306 3.06-.368 9.454 1.835 10.556 2.754 1.376 14.227.918 17.44-1.377 2.57-1.836 2.906-8.72 2.753-11.932-.918-18.969 1.928-56.265 20.652-53.695 14.743 2.024 25.522-.752 31.306-3.442 1.443-.672 1.097-2.656-.414-3.156-3.247-1.074-7.762-2.929-12.535-5.793-9.178-5.507-19.275-30.748-23.405-56.448-4.131-25.7-1.828-35.444-18.357-44.058-11.921-6.212-22.5-6.212-34.42 0-16.53 8.614-15.604 18.358-18.357 44.058-2.754 25.7-16.522 47.728-31.208 60.119z" fill="#772D8B"/></mask><g mask="url(#a)"><path d="M47.255 136.422c-10.567 8.916-25.638 12.56-33.794 13.537-1.224.147-1.815 1.321-.783 1.996 4.248 2.778 15.002 4.814 20.35 5.578 6.426.918 5.508 4.13 4.131 5.048-1.377.918-14.227 2.295-18.816 3.672-3.672 1.101-1.53 3.824 0 5.048l67.921.918c1.071 10.861 3.121 33.616 2.754 36.186-.367 2.57 1.488 3.602 4.13 4.13 3.213.643 8.72.389 12.392 0 3.285-.348 4.436-2.142 4.589-3.212v-7.733h1.836c-.306 3.06-.368 9.454 1.835 10.556 2.754 1.376 14.227.918 17.44-1.377 2.57-1.836 2.906-8.72 2.753-11.932-.918-18.969 1.928-56.265 20.652-53.695 14.743 2.024 25.522-.752 31.306-3.442 1.443-.672 1.097-2.656-.414-3.156-3.247-1.074-7.762-2.929-12.535-5.793-9.178-5.507-19.275-30.748-23.405-56.448-4.131-25.7-1.828-35.444-18.357-44.058-11.921-6.212-22.5-6.212-34.42 0-16.53 8.614-15.604 18.358-18.357 44.058-2.754 25.7-16.522 47.728-31.208 60.119z" fill="#3356A4"/><ellipse opacity=".1" cx="44.502" cy="38.601" rx="102.341" ry="121.157" fill="#EBF2FA"/><ellipse opacity=".2" cx="70.202" cy="-14.635" rx="90.409" ry="122.075" fill="#EBF2FA"/></g><path d="M182.64 94.2c11.749-2.937 29.066-3.671 36.255-3.671 6.884 2.294-4.589 5.507-12.85 9.637-8.26 4.131-5.048 6.884 0 6.884 5.582 0 8.261 0 14.227 1.377 5.966 1.377 2.295 6.425-3.671 9.179-5.966 2.753-21.57 6.425-36.715 14.685-16.565 9.036-6.849 24.137-15.144 37.633-6.538 10.635-10.003 17.571-20.193 24.782-9.401 6.652-15.42 9.454-27.536 10.555-15.145 1.377-28.913.459-31.207 0-2.295-.459-2.754-6.425-3.672-9.637-.918-3.213-8.72-2.295-13.768-2.295s-6.425-.918-3.212-1.836c3.212-.917 9.638-3.671 8.26-5.048-1.376-1.377-10.555-.459-22.487-.918-11.932-.459-24.323-4.589-31.207-9.637s-3.213-10.097-1.836-8.72c1.377 1.377 19.275 4.589 42.68 1.377 23.406-3.213 39.469-17.439 66.087-42.222 26.617-24.782 41.303-28.453 55.989-32.125z" fill="#BCD979"/><ellipse cx="94.984" cy="77.151" rx="5.048" ry="7.343" fill="#fff"/><ellipse cx="131.699" cy="77.151" rx="5.048" ry="7.343" fill="#fff"/><path fill-rule="evenodd" clip-rule="evenodd" d="M127.45 105.528c-1.336.339-2.69-.48-3.03-1.83l-.005-.018a10.567 10.567 0 0 0-.204-.638 13.314 13.314 0 0 0-.791-1.789c-.762-1.427-1.898-2.915-3.496-3.783-3.602-1.958-8.164-2.03-12.611.065-1.934.91-3.202 2.427-4.007 3.804a11.671 11.671 0 0 0-.832 1.744 8.82 8.82 0 0 0-.17.497l-.032.109a.05.05 0 0 1-.003.012c-.341 1.349-1.695 2.166-3.03 1.827-1.338-.341-2.151-1.716-1.815-3.072 4 1.017.012-.046.012-.046l.02-.078c.018-.063.041-.145.072-.245.06-.2.15-.474.274-.803.246-.656.631-1.546 1.203-2.524 1.135-1.944 3.073-4.344 6.2-5.817 5.676-2.673 11.911-2.746 17.082.065 2.789 1.515 4.521 3.945 5.531 5.838.513.963.868 1.838 1.096 2.479a15.315 15.315 0 0 1 .322 1.016l.019.073.011.042c.336 1.356-.477 2.732-1.816 3.072z" fill="#FF740D"/><path d="M97.436 102.41s3.988 1.063-.012.046l.012-.046z" fill="#FF740D"/><mask id="b" style="mask-type:alpha" maskUnits="userSpaceOnUse" x="79" y="22" width="64" height="24"><path d="M133.355 28.34c8.362 5.436 9.88 12.237 9.358 14.85-.11-1.394-3.558-5.546-8.313-8.055-5.943-3.136-9.407-1.568-21.428 5.749-12.02 7.317-22.473 4.181-26.131 3.136-3.136-.896-6.098-2.265-7.317-3.136 1.568-.523 5.435-2.3 8.362-5.226 3.659-3.659 12.02-9.93 18.815-11.498 6.794-1.568 16.202-2.614 26.654 4.18z" fill="#3356A4"/></mask><g mask="url(#b)"><path d="M133.355 28.34c8.362 5.436 10.339 12.237 9.817 14.85-.459-1.377-4.017-5.546-8.772-8.055-5.943-3.136-9.407-1.568-21.428 5.749-12.02 7.317-22.473 4.181-26.131 3.136-3.136-.896-6.098-2.265-7.317-3.136 1.568-.523 5.435-2.3 8.362-5.226 3.659-3.659 12.02-9.93 18.815-11.498 6.794-1.568 16.202-2.614 26.654 4.18z" fill="#0B1A46"/><path opacity=".1" d="M137.536 15.68c1.614 5.615-18.808 20.64-33.281 24.8-14.473 4.159-27.513 2.98-29.127-2.635-1.613-5.614 8.811-13.537 23.284-17.696 14.473-4.159 37.511-10.083 39.124-4.469z" fill="#fff"/></g><path d="M206.073 63.538C203.858 68.022 199.951 71 195.5 71c-4.451 0-8.358-2.978-10.573-7.462A4.279 4.279 0 0 1 183 64c-2.762 0-5-2.687-5-6s2.238-6 5-6l.131.002.088.004C184.314 44.6 189.396 39 195.5 39c6.104 0 11.186 5.6 12.281 13.006.073-.004.146-.006.219-.006 2.762 0 5 2.687 5 6s-2.238 6-5 6a4.279 4.279 0 0 1-1.927-.462z" fill="#EBF2FA"/><ellipse cx="191" cy="50" rx="2" ry="3" fill="#FF740D"/><ellipse cx="200" cy="50" rx="2" ry="3" fill="#FF740D"/><path d="M48.073 49.538C45.858 54.022 41.951 57 37.5 57c-4.451 0-8.358-2.978-10.573-7.462A4.279 4.279 0 0 1 25 50c-2.762 0-5-2.687-5-6s2.238-6 5-6l.13.002.089.004C26.314 30.6 31.396 25 37.5 25c6.103 0 11.185 5.6 12.281 13.006.072-.004.146-.006.219-.006 2.762 0 5 2.687 5 6s-2.238 6-5 6a4.279 4.279 0 0 1-1.927-.462z" fill="#EBF2FA"/><ellipse cx="33" cy="36" rx="2" ry="3" fill="#FF740D"/><ellipse cx="42" cy="36" rx="2" ry="3" fill="#FF740D"/></svg>