<svg viewBox="0 0 233 233" fill="none" xmlns="http://www.w3.org/2000/svg"><g opacity=".1" fill="#0B1A46"><path d="M190.593 159.55c-4.744 13.565-13.083 25.443-23.876 34.489l9.651 17.834-30.383 16.442-9.963-18.408A79.136 79.136 0 0 1 116 212.466a79.094 79.094 0 0 1-20.575-2.706l-10.042 18.555L55 211.873l9.85-18.2c-10.571-8.99-18.745-20.713-23.427-34.078L0 163.466l9.5-20c22.576-40.829 190-41 213.5 0l9.5 20-41.907-3.916z"/><path d="M201.773 169.302c-.461.829-1.709.611-1.861-.325l-.521-3.188a.998.998 0 0 0-.795-.82l-3.17-.62c-.93-.182-1.109-1.436-.266-1.871l2.871-1.479c.372-.192.585-.595.535-1.01l-.39-3.207c-.114-.941 1.023-1.498 1.697-.831l2.294 2.274c.297.294.746.372 1.126.196l2.929-1.362c.859-.399 1.741.51 1.314 1.357l-1.453 2.885a1 1 0 0 0 .161 1.131l2.2 2.365c.646.694.054 1.813-.884 1.669l-3.192-.49a.998.998 0 0 0-1.026.503l-1.569 2.823zm-171.882 0c.46.829 1.708.611 1.86-.325l.52-3.188a.999.999 0 0 1 .796-.82l3.17-.62c.93-.182 1.109-1.436.266-1.871l-2.871-1.479a1.001 1.001 0 0 1-.535-1.01l.39-3.207c.114-.941-1.023-1.498-1.696-.831l-2.295 2.274a1.001 1.001 0 0 1-1.125.196l-2.93-1.362c-.86-.399-1.74.51-1.314 1.357l1.453 2.885a1 1 0 0 1-.161 1.131l-2.2 2.365c-.646.694-.053 1.813.884 1.669l3.192-.49a.999.999 0 0 1 1.026.503l1.57 2.823zm155.295 19.838c-.642.698-1.804.194-1.733-.752l.241-3.221a1 1 0 0 0-.58-.984l-2.937-1.345c-.862-.395-.742-1.656.18-1.881l3.138-.766a1 1 0 0 0 .756-.856l.372-3.209c.109-.941 1.346-1.217 1.844-.41l1.698 2.748a1 1 0 0 0 1.048.454l3.167-.637c.929-.187 1.573.903.96 1.627l-2.088 2.464a1 1 0 0 0-.109 1.137l1.585 2.815c.465.826-.373 1.775-1.251 1.416l-2.989-1.225a1 1 0 0 0-1.115.248l-2.187 2.377zm-138.71 0c.643.698 1.805.194 1.734-.752l-.241-3.221c-.032-.417.2-.809.58-.984l2.937-1.345c.862-.395.742-1.656-.18-1.881l-3.137-.766a1 1 0 0 1-.757-.856l-.372-3.209c-.11-.941-1.345-1.217-1.844-.41l-1.698 2.748a1 1 0 0 1-1.048.454l-3.167-.637c-.93-.187-1.573.903-.96 1.627l2.089 2.464a1 1 0 0 1 .108 1.137l-1.585 2.815c-.465.826.373 1.775 1.25 1.416l2.99-1.225a.999.999 0 0 1 1.115.248l2.187 2.377z"/></g><path opacity=".1" d="M30.203 58.844c.46-.829 1.708-.611 1.861.325l.52 3.187a1 1 0 0 0 .795.82l3.17.62c.93.183 1.11 1.437.266 1.871l-2.87 1.48a1 1 0 0 0-.535 1.01l.39 3.206c.114.941-1.023 1.499-1.697.831l-2.295-2.273a1 1 0 0 0-1.125-.197l-2.93 1.362c-.859.4-1.74-.51-1.314-1.356l1.453-2.885a1 1 0 0 0-.16-1.131l-2.2-2.365c-.647-.694-.054-1.814.883-1.67l3.193.49a1 1 0 0 0 1.026-.502l1.569-2.823zm171.882 0c-.461-.829-1.708-.611-1.861.325l-.52 3.187a1 1 0 0 1-.795.82l-3.17.62c-.931.183-1.109 1.437-.266 1.871l2.871 1.48a.998.998 0 0 1 .534 1.01l-.389 3.206c-.115.941 1.022 1.499 1.696.831l2.295-2.273a1 1 0 0 1 1.125-.197l2.929 1.362c.86.4 1.741-.51 1.315-1.356l-1.453-2.885a1 1 0 0 1 .161-1.131l2.2-2.365c.646-.694.053-1.814-.884-1.67l-3.193.49a1.001 1.001 0 0 1-1.026-.502l-1.569-2.823zM46.789 39.005c.642-.697 1.804-.193 1.733.752l-.24 3.221a1 1 0 0 0 .58.984l2.936 1.346c.862.395.742 1.656-.179 1.88l-3.138.766a1 1 0 0 0-.756.856l-.372 3.21c-.11.94-1.346 1.216-1.844.41l-1.699-2.748a1 1 0 0 0-1.048-.455l-3.166.638c-.93.187-1.573-.904-.96-1.627l2.088-2.464a1 1 0 0 0 .109-1.138l-1.585-2.814c-.465-.826.373-1.776 1.25-1.416l2.99 1.225a1 1 0 0 0 1.114-.248l2.187-2.378zm138.71 0c-.642-.697-1.804-.193-1.733.752l.241 3.221c.031.417-.201.81-.581.984l-2.936 1.346c-.862.395-.742 1.656.179 1.88l3.138.766a1 1 0 0 1 .756.856l.372 3.21c.11.94 1.346 1.216 1.844.41l1.699-2.748a1 1 0 0 1 1.048-.455l3.166.638c.93.187 1.574-.904.96-1.627l-2.088-2.464a1 1 0 0 1-.108-1.138l1.584-2.814c.466-.826-.373-1.776-1.25-1.416l-2.989 1.225a1 1 0 0 1-1.115-.248l-2.187-2.378zM67.92 24.356c.81-.492 1.787.314 1.457 1.203l-1.125 3.028a1 1 0 0 0 .285 1.106l2.448 2.107c.719.619.253 1.797-.694 1.757l-3.227-.134a1 1 0 0 0-.964.613l-1.248 2.98c-.366.874-1.63.796-1.886-.118l-.869-3.11a1 1 0 0 0-.88-.728l-3.22-.266c-.945-.078-1.26-1.304-.471-1.83l2.69-1.787a1 1 0 0 0 .42-1.063l-.743-3.144c-.217-.922.852-1.602 1.595-1.013l2.532 2.006a1 1 0 0 0 1.14.07l2.76-1.677zm96.448 0c-.811-.492-1.787.314-1.457 1.203l1.125 3.028a1 1 0 0 1-.285 1.106l-2.448 2.107c-.718.619-.253 1.797.694 1.757l3.227-.134a1 1 0 0 1 .964.613l1.248 2.98c.366.874 1.63.796 1.886-.118l.869-3.11a1 1 0 0 1 .881-.728l3.219-.266c.945-.078 1.261-1.304.471-1.83l-2.69-1.787a1 1 0 0 1-.419-1.063l.742-3.144c.217-.922-.851-1.602-1.595-1.013l-2.532 2.006a1 1 0 0 1-1.14.07l-2.76-1.677zm-71.212-9.523c.916-.247 1.63.8 1.065 1.561L92.3 18.99a1 1 0 0 0-.034 1.142l1.766 2.704c.518.794-.256 1.796-1.155 1.495l-3.063-1.026a1 1 0 0 0-1.097.32l-2.026 2.516c-.595.738-1.787.311-1.779-.637l.03-3.23a1 1 0 0 0-.644-.944l-3.018-1.15c-.886-.337-.849-1.603.055-1.888l3.081-.97a1 1 0 0 0 .699-.904l.161-3.226c.047-.947 1.263-1.303 1.813-.53l1.875 2.63a1 1 0 0 0 1.075.385l3.118-.843zm45.976 0c-.916-.247-1.629.8-1.065 1.561l1.922 2.596a1 1 0 0 1 .034 1.142l-1.766 2.704c-.518.794.256 1.796 1.155 1.495l3.063-1.026a1.001 1.001 0 0 1 1.097.32l2.026 2.516c.595.738 1.788.311 1.779-.637l-.03-3.23a1 1 0 0 1 .644-.944l3.018-1.15c.886-.337.849-1.603-.055-1.888l-3.081-.97a1 1 0 0 1-.699-.904l-.161-3.226c-.047-.947-1.263-1.303-1.813-.53l-1.875 2.63a1 1 0 0 1-1.075.385l-3.118-.843zm-29.139-2.123c-.947.024-1.332 1.231-.573 1.8l2.586 1.936a1 1 0 0 1 .359 1.084l-.917 3.097c-.269.91.76 1.648 1.535 1.102l2.64-1.86a1 1 0 0 1 1.142-.007l2.663 1.829c.781.537 1.801-.214 1.521-1.12l-.953-3.086a.999.999 0 0 1 .347-1.088l2.562-1.967c.752-.577.354-1.78-.594-1.793l-3.23-.047a1 1 0 0 1-.928-.666l-1.079-3.045c-.316-.893-1.583-.886-1.889.012l-1.042 3.057a1 1 0 0 1-.921.677l-3.229.085z" fill="#0B1A46"/><mask id="a" style="mask-type:alpha" maskUnits="userSpaceOnUse" x="0" y="84" width="54" height="60"><path d="M9.5 104.466l-9.5-20 53.5 5v49l-53.5 5 9.5-20-9.5-9.5 9.5-9.5z" fill="#3356A4"/></mask><g mask="url(#a)"><path d="M9.5 104.466l-9.5-20 53.5 5v49l-53.5 5 9.5-20-9.5-9.5 9.5-9.5z" fill="#3356A4"/><circle opacity=".2" cx="97" cy="121.466" r="65" fill="#0B1A46"/></g><mask id="b" style="mask-type:alpha" maskUnits="userSpaceOnUse" x="179" y="84" width="54" height="60"><path d="M223 104.466l9.5-20-53.5 5v49l53.5 5-9.5-20 9.5-9.5-9.5-9.5z" fill="#3356A4"/></mask><g mask="url(#b)"><path d="M223 104.466l9.5-20-53.5 5v49l53.5 5-9.5-20 9.5-9.5-9.5-9.5z" fill="#3356A4"/><circle opacity=".2" cx="65" cy="65" r="65" transform="matrix(-1 0 0 1 200.5 56.466)" fill="#0B1A46"/></g><path transform="rotate(28.42 84.984 146.466)" fill="#3356A4" d="M84.984 146.466H119.53099999999999V209.466H84.984z"/><path transform="scale(-1 1) rotate(28.421 -362.384 -215.795)" fill="#3356A4" d="M0 0H34.547V63H0z"/><circle cx="116" cy="113.466" r="75" fill="#fff" stroke="#0B1A46" stroke-width="8"/><circle cx="116.5" cy="116.233" r="66.5" fill="#fff"/><circle cx="116" cy="113.466" r="62" stroke="#BCD979" stroke-width="12" filter="url(#filter0_d_173_2207)"/><circle cx="116" cy="113.466" r="42.5" stroke="url(#paint0_linear_173_2207)" stroke-width="3" filter="url(#filter1_d_173_2207)"/><path d="M115.143 90.157a1 1 0 0 1 1.714 0l7.154 11.887a.996.996 0 0 0 .631.458l13.516 3.131a1 1 0 0 1 .529 1.629l-9.094 10.477a1 1 0 0 0-.242.742l1.2 13.822a1 1 0 0 1-1.386 1.007l-12.775-5.412a1.005 1.005 0 0 0-.78 0l-12.775 5.412a1 1 0 0 1-1.386-1.007l1.2-13.822a1 1 0 0 0-.242-.742l-9.094-10.477a1 1 0 0 1 .53-1.629l13.515-3.131a.996.996 0 0 0 .631-.458l7.154-11.887z" fill="#FF740D" filter="url(#filter2_d_173_2207)"/><defs><filter id="filter0_d_173_2207" x="48" y="45.466" width="138" height="138" filterUnits="userSpaceOnUse" color-interpolation-filters="sRGB"><feFlood flood-opacity="0" result="BackgroundImageFix"/><feColorMatrix in="SourceAlpha" values="0 0 0 0 0 0 0 0 0 0 0 0 0 0 0 0 0 0 127 0" result="hardAlpha"/><feOffset dx="2" dy="2"/><feColorMatrix values="0 0 0 0 0.921569 0 0 0 0 0.94902 0 0 0 0 0.980392 0 0 0 1 0"/><feBlend in2="BackgroundImageFix" result="effect1_dropShadow_173_2207"/><feBlend in="SourceGraphic" in2="effect1_dropShadow_173_2207" result="shape"/></filter><filter id="filter1_d_173_2207" x="72" y="69.466" width="90" height="90" filterUnits="userSpaceOnUse" color-interpolation-filters="sRGB"><feFlood flood-opacity="0" result="BackgroundImageFix"/><feColorMatrix in="SourceAlpha" values="0 0 0 0 0 0 0 0 0 0 0 0 0 0 0 0 0 0 127 0" result="hardAlpha"/><feOffset dx="2" dy="2"/><feColorMatrix values="0 0 0 0 0.921569 0 0 0 0 0.94902 0 0 0 0 0.980392 0 0 0 1 0"/><feBlend in2="BackgroundImageFix" result="effect1_dropShadow_173_2207"/><feBlend in="SourceGraphic" in2="effect1_dropShadow_173_2207" result="shape"/></filter><filter id="filter2_d_173_2207" x="93.067" y="89.672" width="47.865" height="45.718" filterUnits="userSpaceOnUse" color-interpolation-filters="sRGB"><feFlood flood-opacity="0" result="BackgroundImageFix"/><feColorMatrix in="SourceAlpha" values="0 0 0 0 0 0 0 0 0 0 0 0 0 0 0 0 0 0 127 0" result="hardAlpha"/><feOffset dx="2" dy="2"/><feColorMatrix values="0 0 0 0 0.921569 0 0 0 0 0.94902 0 0 0 0 0.980392 0 0 0 1 0"/><feBlend in2="BackgroundImageFix" result="effect1_dropShadow_173_2207"/><feBlend in="SourceGraphic" in2="effect1_dropShadow_173_2207" result="shape"/></filter><linearGradient id="paint0_linear_173_2207" x1="116" y1="74.995" x2="116" y2="145.487" gradientUnits="userSpaceOnUse"><stop stop-color="#3356A4"/><stop offset="1" stop-color="#0B1A46"/></linearGradient></defs></svg>