<svg viewBox="0 0 233 233" fill="none" xmlns="http://www.w3.org/2000/svg"><g opacity=".1" fill="#0B1A46"><path d="M38 184c0-6.627 5.373-12 12-12h110c6.627 0 12 5.373 12 12s-5.373 12-12 12H50c-6.627 0-12-5.373-12-12zm28 27c0-6.627 5.373-12 12-12h82c6.627 0 12 5.373 12 12s-5.373 12-12 12H78c-6.627 0-12-5.373-12-12z"/><path fill-rule="evenodd" clip-rule="evenodd" d="M142.008 134.309A57.665 57.665 0 0 1 127.102 145H75.898C56.99 135.582 44 116.058 44 93.5 44 61.744 69.744 36 101.5 36S159 61.744 159 93.5c0 5.405-.746 10.636-2.14 15.595A29.86 29.86 0 0 1 172 105c16.569 0 30 13.431 30 30 0 16.569-13.431 30-30 30a30.52 30.52 0 0 1-2.931-.141A11.97 11.97 0 0 1 160 169H71c-6.627 0-12-5.373-12-12s5.373-12 12-12h4.898c7.71 3.84 16.404 6 25.602 6s17.892-2.16 25.602-6h16.605a29.967 29.967 0 0 1-1.699-10.691zm14.852-25.214a57.452 57.452 0 0 1-14.852 25.214c.243-10.757 6.148-20.116 14.852-25.214z"/><path d="M101.5 151c9.198 0 17.892-2.16 25.602-6H75.898c7.71 3.84 16.404 6 25.602 6zm55.36-41.905a57.452 57.452 0 0 1-14.852 25.214c.243-10.757 6.148-20.116 14.852-25.214z"/></g><mask id="a" style="mask-type:alpha" maskUnits="userSpaceOnUse" x="17" y="125" width="134" height="78"><path d="M38 137c0-6.627 5.373-12 12-12h89c6.627 0 12 5.373 12 12s-5.373 12-12 12H50c-6.627 0-12-5.373-12-12zm-21 27c0-6.627 5.373-12 12-12h110c6.627 0 12 5.373 12 12s-5.373 12-12 12H29c-6.627 0-12-5.373-12-12zm28 27c0-6.627 5.373-12 12-12h82c6.627 0 12 5.373 12 12s-5.373 12-12 12H57c-6.627 0-12-5.373-12-12z" fill="#3356A4"/></mask><g mask="url(#a)"><path d="M38 137c0-6.627 5.373-12 12-12h89c6.627 0 12 5.373 12 12s-5.373 12-12 12H50c-6.627 0-12-5.373-12-12zm-21 27c0-6.627 5.373-12 12-12h110c6.627 0 12 5.373 12 12s-5.373 12-12 12H29c-6.627 0-12-5.373-12-12zm28 27c0-6.627 5.373-12 12-12h82c6.627 0 12 5.373 12 12s-5.373 12-12 12H57c-6.627 0-12-5.373-12-12z" fill="#3356A4"/><ellipse opacity=".2" cx="126" cy="115" rx="65" ry="82" fill="#0B1A46"/></g><g opacity=".1"><path d="M21.377 40.317a1.331 1.331 0 0 1 1.822-.47l8.628 4.981c.643.371.868 1.183.504 1.814-.364.63-1.18.841-1.823.47l-8.627-4.981a1.331 1.331 0 0 1-.505-1.814zM19.5 43.33a1.331 1.331 0 0 1 1.823-.47l10.663 6.157c.643.37.869 1.182.504 1.813-.364.63-1.18.841-1.822.47l-10.664-6.156a1.331 1.331 0 0 1-.504-1.814zm-1.126 3.755a1.331 1.331 0 0 1 1.823-.47l7.949 4.59c.642.37.868 1.183.504 1.813-.364.631-1.18.842-1.823.47l-7.95-4.589a1.331 1.331 0 0 1-.503-1.814zm145.943-15.471a1.332 1.332 0 0 1-.47-1.823l4.981-8.628a1.332 1.332 0 0 1 1.814-.504 1.33 1.33 0 0 1 .47 1.823l-4.981 8.628a1.332 1.332 0 0 1-1.814.504zm2.013 3.876a1.33 1.33 0 0 1-.47-1.822l6.157-10.664a1.33 1.33 0 0 1 1.813-.504c.631.364.841 1.18.471 1.823l-6.157 10.663a1.332 1.332 0 0 1-1.814.504zm6.157-3.3a1.33 1.33 0 0 1-.47-1.823l4.589-7.95a1.332 1.332 0 0 1 1.814-.504c.63.364.841 1.18.47 1.823l-4.589 7.95a1.332 1.332 0 0 1-1.814.503zM21.152 139.771a.662.662 0 0 1-.234-.906l2.476-4.288a.662.662 0 0 1 .902-.251.662.662 0 0 1 .233.906l-2.476 4.289a.662.662 0 0 1-.901.25zm1 1.927a.662.662 0 0 1-.233-.906l3.06-5.3a.662.662 0 0 1 .901-.251.662.662 0 0 1 .234.906l-3.06 5.301a.662.662 0 0 1-.902.25zM206.7 79.497a1.02 1.02 0 0 1 1.362.478l3.373 6.853a1.02 1.02 0 0 1-.452 1.37 1.02 1.02 0 0 1-1.362-.477l-3.374-6.853a1.02 1.02 0 0 1 .453-1.371zm.671 7.63a1.02 1.02 0 0 1 1.362.477l4.17 8.47c.251.511.048 1.125-.453 1.371a1.02 1.02 0 0 1-1.362-.477l-4.169-8.471a1.02 1.02 0 0 1 .452-1.37zm-3.471-.598a1.02 1.02 0 0 1 1.362.478l3.108 6.314a1.02 1.02 0 0 1-.452 1.371 1.02 1.02 0 0 1-1.362-.477l-3.108-6.315a1.02 1.02 0 0 1 .452-1.37zm-13.211 129.095a1.331 1.331 0 0 1-.47-1.823l4.981-8.628a1.332 1.332 0 0 1 1.814-.504c.631.364.841 1.18.47 1.823l-4.981 8.628a1.332 1.332 0 0 1-1.814.504zm2.013 3.876a1.33 1.33 0 0 1-.47-1.822l6.156-10.664a1.331 1.331 0 0 1 1.814-.504c.631.364.841 1.18.47 1.823l-6.156 10.663a1.331 1.331 0 0 1-1.814.504zm6.157-3.301a1.331 1.331 0 0 1-.471-1.823l4.59-7.949c.371-.642 1.183-.868 1.813-.504.631.364.842 1.18.471 1.823l-4.59 7.949a1.33 1.33 0 0 1-1.813.504z" fill="#0B1A46"/></g><circle cx="172" cy="115" r="30" fill="#fff"/><path d="M158 123h27" stroke="#0B1A46" stroke-width="6" stroke-linecap="round"/><path d="M163.053 106.579a2.895 2.895 0 1 1-5.79 0 2.895 2.895 0 0 1 5.79 0zm22.631 0a2.895 2.895 0 1 1-5.79 0 2.895 2.895 0 0 1 5.79 0z" fill="#0B1A46" stroke="#0B1A46" stroke-width=".526"/><circle cx="98" cy="74" r="55" fill="#fff" stroke="#BCD979" stroke-width="10"/><g filter="url(#filter0_d_175_2908)" fill="#FF740D"><path fill-rule="evenodd" clip-rule="evenodd" d="M69.165 82.576c2.68-.681 5.399.962 6.081 3.672l.01.037a20.44 20.44 0 0 0 .41 1.28c.325.915.841 2.191 1.588 3.59 1.528 2.865 3.809 5.85 7.015 7.593 7.23 3.929 16.385 4.074 25.311-.13 3.88-1.828 6.426-4.872 8.04-7.635a23.078 23.078 0 0 0 1.67-3.5c.165-.44.276-.782.342-.997l.064-.22a3.37 3.37 0 0 0 .006-.024c.686-2.707 3.402-4.347 6.08-3.666 2.687.683 4.319 3.443 3.645 6.165-8.03-2.04-.024.093-.024.093l-.042.157a26.567 26.567 0 0 1-.693 2.103 33.233 33.233 0 0 1-2.414 5.065c-2.279 3.901-6.167 8.718-12.444 11.674-11.391 5.366-23.905 5.511-34.284-.13-5.597-3.042-9.072-7.917-11.099-11.716a37.07 37.07 0 0 1-2.2-4.975 30.623 30.623 0 0 1-.647-2.04l-.039-.147-.02-.084c-.675-2.722.957-5.482 3.644-6.165z"/><path d="M129.403 88.834s-8.006-2.133.024-.093l-.024.093z"/></g><g filter="url(#filter1_d_175_2908)"><path d="M81.158 57.159a6.316 6.316 0 1 1-12.632 0 6.316 6.316 0 0 1 12.632 0zm45.263 0a6.316 6.316 0 1 1-12.632 0 6.316 6.316 0 0 1 12.632 0z" fill="#FF740D"/></g><g filter="url(#filter2_d_175_2908)"><circle cx="185.5" cy="174.5" r="21.5" fill="#EBF2FA"/><circle cx="185.5" cy="174.5" r="20.5" stroke="url(#paint0_linear_175_2908)" stroke-width="2"/></g><g filter="url(#filter3_dd_175_2908)"><path fill-rule="evenodd" clip-rule="evenodd" d="M195.455 185.761a1.797 1.797 0 0 1-2.179-1.316l-.003-.014-.025-.085a6.995 6.995 0 0 0-.122-.373 9.692 9.692 0 0 0-.569-1.286c-.548-1.027-1.365-2.097-2.514-2.721-2.59-1.408-5.871-1.46-9.069.046-1.391.655-2.303 1.746-2.882 2.736a8.27 8.27 0 0 0-.598 1.254 5.817 5.817 0 0 0-.145.436l-.003.009a1.795 1.795 0 0 1-2.178 1.314 1.823 1.823 0 0 1-1.306-2.21c2.877.732.008-.033.008-.033l.015-.056a10.241 10.241 0 0 1 .248-.753c.177-.472.455-1.112.866-1.816.816-1.397 2.209-3.123 4.459-4.183 4.081-1.923 8.566-1.975 12.285.047 2.005 1.09 3.25 2.837 3.977 4.198.369.693.624 1.322.788 1.783.082.231.143.423.184.562.021.07.036.126.048.169l.014.052.007.03a1.823 1.823 0 0 1-1.306 2.21z" fill="url(#paint1_linear_175_2908)"/><path d="M173.87 183.518s2.869.765-.008.033l.008-.033z" fill="url(#paint2_linear_175_2908)"/></g><g filter="url(#filter4_dd_175_2908)"><path d="M179.465 168.465a2.263 2.263 0 1 1-4.526 0 2.263 2.263 0 0 1 4.526 0z" fill="url(#paint3_linear_175_2908)"/><path d="M195.684 168.465a2.263 2.263 0 1 1-4.526 0 2.263 2.263 0 0 1 4.526 0z" fill="url(#paint4_linear_175_2908)"/></g><defs><filter id="filter0_d_175_2908" x="65.368" y="82.422" width="66.21" height="31.474" filterUnits="userSpaceOnUse" color-interpolation-filters="sRGB"><feFlood flood-opacity="0" result="BackgroundImageFix"/><feColorMatrix in="SourceAlpha" values="0 0 0 0 0 0 0 0 0 0 0 0 0 0 0 0 0 0 127 0" result="hardAlpha"/><feOffset dx="2" dy="2"/><feColorMatrix values="0 0 0 0 0.921569 0 0 0 0 0.94902 0 0 0 0 0.980392 0 0 0 1 0"/><feBlend in2="BackgroundImageFix" result="effect1_dropShadow_175_2908"/><feBlend in="SourceGraphic" in2="effect1_dropShadow_175_2908" result="shape"/></filter><filter id="filter1_d_175_2908" x="68.526" y="50.843" width="59.895" height="14.632" filterUnits="userSpaceOnUse" color-interpolation-filters="sRGB"><feFlood flood-opacity="0" result="BackgroundImageFix"/><feColorMatrix in="SourceAlpha" values="0 0 0 0 0 0 0 0 0 0 0 0 0 0 0 0 0 0 127 0" result="hardAlpha"/><feOffset dx="2" dy="2"/><feColorMatrix values="0 0 0 0 0.921569 0 0 0 0 0.94902 0 0 0 0 0.980392 0 0 0 1 0"/><feBlend in2="BackgroundImageFix" result="effect1_dropShadow_175_2908"/><feBlend in="SourceGraphic" in2="effect1_dropShadow_175_2908" result="shape"/></filter><filter id="filter2_d_175_2908" x="164" y="153" width="45" height="45" filterUnits="userSpaceOnUse" color-interpolation-filters="sRGB"><feFlood flood-opacity="0" result="BackgroundImageFix"/><feColorMatrix in="SourceAlpha" values="0 0 0 0 0 0 0 0 0 0 0 0 0 0 0 0 0 0 127 0" result="hardAlpha"/><feOffset dx="2" dy="2"/><feColorMatrix values="0 0 0 0 0.921569 0 0 0 0 0.94902 0 0 0 0 0.980392 0 0 0 1 0"/><feBlend in2="BackgroundImageFix" result="effect1_dropShadow_175_2908"/><feBlend in="SourceGraphic" in2="effect1_dropShadow_175_2908" result="shape"/></filter><filter id="filter3_dd_175_2908" x="173.807" y="175.254" width="25.009" height="12.561" filterUnits="userSpaceOnUse" color-interpolation-filters="sRGB"><feFlood flood-opacity="0" result="BackgroundImageFix"/><feColorMatrix in="SourceAlpha" values="0 0 0 0 0 0 0 0 0 0 0 0 0 0 0 0 0 0 127 0" result="hardAlpha"/><feOffset dx=".754" dy=".754"/><feColorMatrix values="0 0 0 0 1 0 0 0 0 1 0 0 0 0 1 0 0 0 1 0"/><feBlend in2="BackgroundImageFix" result="effect1_dropShadow_175_2908"/><feColorMatrix in="SourceAlpha" values="0 0 0 0 0 0 0 0 0 0 0 0 0 0 0 0 0 0 127 0" result="hardAlpha"/><feOffset dx="2" dy="2"/><feColorMatrix values="0 0 0 0 0.921569 0 0 0 0 0.94902 0 0 0 0 0.980392 0 0 0 1 0"/><feBlend in2="effect1_dropShadow_175_2908" result="effect2_dropShadow_175_2908"/><feBlend in="SourceGraphic" in2="effect2_dropShadow_175_2908" result="shape"/></filter><filter id="filter4_dd_175_2908" x="174.938" y="166.202" width="22.746" height="6.526" filterUnits="userSpaceOnUse" color-interpolation-filters="sRGB"><feFlood flood-opacity="0" result="BackgroundImageFix"/><feColorMatrix in="SourceAlpha" values="0 0 0 0 0 0 0 0 0 0 0 0 0 0 0 0 0 0 127 0" result="hardAlpha"/><feOffset dx=".754" dy=".754"/><feColorMatrix values="0 0 0 0 1 0 0 0 0 1 0 0 0 0 1 0 0 0 1 0"/><feBlend in2="BackgroundImageFix" result="effect1_dropShadow_175_2908"/><feColorMatrix in="SourceAlpha" values="0 0 0 0 0 0 0 0 0 0 0 0 0 0 0 0 0 0 127 0" result="hardAlpha"/><feOffset dx="2" dy="2"/><feColorMatrix values="0 0 0 0 0.921569 0 0 0 0 0.94902 0 0 0 0 0.980392 0 0 0 1 0"/><feBlend in2="effect1_dropShadow_175_2908" result="effect2_dropShadow_175_2908"/><feBlend in="SourceGraphic" in2="effect2_dropShadow_175_2908" result="shape"/></filter><linearGradient id="paint0_linear_175_2908" x1="185.5" y1="155.702" x2="185.5" y2="190.147" gradientUnits="userSpaceOnUse"><stop stop-color="#3356A4"/><stop offset="1" stop-color="#0B1A46"/></linearGradient><linearGradient id="paint1_linear_175_2908" x1="185.312" y1="185.152" x2="185.312" y2="176.692" gradientUnits="userSpaceOnUse"><stop stop-color="#3356A4"/><stop offset="1" stop-color="#0B1A46"/></linearGradient><linearGradient id="paint2_linear_175_2908" x1="185.312" y1="185.152" x2="185.312" y2="176.692" gradientUnits="userSpaceOnUse"><stop stop-color="#3356A4"/><stop offset="1" stop-color="#0B1A46"/></linearGradient><linearGradient id="paint3_linear_175_2908" x1="185.311" y1="166.486" x2="185.311" y2="170.112" gradientUnits="userSpaceOnUse"><stop stop-color="#3356A4"/><stop offset="1" stop-color="#0B1A46"/></linearGradient><linearGradient id="paint4_linear_175_2908" x1="185.311" y1="166.486" x2="185.311" y2="170.112" gradientUnits="userSpaceOnUse"><stop stop-color="#3356A4"/><stop offset="1" stop-color="#0B1A46"/></linearGradient></defs></svg>