<svg viewBox="0 0 233 233" fill="none" xmlns="http://www.w3.org/2000/svg"><g opacity=".1" fill="#0B1A46"><path d="M25.5 225.5l6-13.5 86.5-6v14H47.5v5.5h-22z"/><path d="M206.5 225.5l-6-13.5-86.5-6v14h70.5v5.5h22z"/><path d="M16 119c0-8.284 6.716-15 15-15h172c8.284 0 15 6.716 15 15v79c0 8.284-6.716 15-15 15H31c-8.284 0-15-6.716-15-15v-79z"/><path fill-rule="evenodd" clip-rule="evenodd" d="M129.714 62.335a10.686 10.686 0 0 1-.381-2.835c0-5.89 4.776-10.666 10.667-10.666s10.667 4.775 10.667 10.666S145.891 70.167 140 70.167a10.65 10.65 0 0 1-8.517-4.245l-89.894 44.256-1.767-3.589 89.892-44.254z"/></g><path d="M25.5 205.5l6-13.5 86.5-6v14H47.5v5.5h-22z" fill="#3356A4"/><path d="M206.5 205.5l-6-13.5-86.5-6v14h70.5v5.5h22z" fill="#3356A4"/><path d="M41.617 85.706l-1.795.883 1.767 3.589 1.794-.884-1.766-3.588zM129.333 39.5c0 5.891 4.776 10.667 10.667 10.667s10.667-4.776 10.667-10.667S145.891 28.833 140 28.833 129.333 33.61 129.333 39.5zm-85.95 49.794l97.5-48-1.766-3.588-97.5 48 1.766 3.588z" fill="#0B1A46"/><mask id="a" style="mask-type:alpha" maskUnits="userSpaceOnUse" x="16" y="84" width="202" height="109"><path d="M16 99c0-8.284 6.716-15 15-15h172c8.284 0 15 6.716 15 15v79c0 8.284-6.716 15-15 15H31c-8.284 0-15-6.716-15-15V99z" fill="#fff"/></mask><g mask="url(#a)"><path d="M16 99c0-8.284 6.716-15 15-15h172c8.284 0 15 6.716 15 15v79c0 8.284-6.716 15-15 15H31c-8.284 0-15-6.716-15-15V99z" fill="#fff"/><ellipse cx="201" cy="148.5" rx="65" ry="92.5" fill="#EBF2FA"/><path d="M20 99c0-6.075 4.925-11 11-11h172c6.075 0 11 4.925 11 11v79c0 6.075-4.925 11-11 11H31c-6.075 0-11-4.925-11-11V99z" stroke="#0B1A46" stroke-width="8"/></g><circle cx="154" cy="168" r="6" fill="#FF740D" filter="url(#filter0_d_173_2765)"/><circle cx="174" cy="168" r="6" fill="#FF740D" filter="url(#filter1_d_173_2765)"/><circle cx="194" cy="168" r="6" fill="#FF740D" filter="url(#filter2_d_173_2765)"/><circle cx="174" cy="127" r="22" stroke="url(#paint0_linear_173_2765)" stroke-width="6" filter="url(#filter3_d_173_2765)"/><circle cx="174" cy="127" r="8" stroke="#FF740D" stroke-width="2"/><path d="M36 152.5a7.5 7.5 0 0 1 7.5-7.5h76a7.5 7.5 0 0 1 7.5 7.5v14a7.5 7.5 0 0 1-7.5 7.5h-76a7.5 7.5 0 0 1-7.5-7.5v-14z" fill="#BCD979" filter="url(#filter4_d_173_2765)"/><path fill-rule="evenodd" clip-rule="evenodd" d="M53.414 102.586a2 2 0 0 1 0 2.828l-15.5 15.5a2 2 0 0 1-2.828-2.828l15.5-15.5a2 2 0 0 1 2.828 0zm12 0a2 2 0 0 1 0 2.828l-26 26a2 2 0 0 1-2.828-2.828l26-26a2 2 0 0 1 2.828 0zm12.5 0a2 2 0 0 1 0 2.828l-29 29a2 2 0 0 1-2.828-2.828l29-29a2 2 0 0 1 2.828 0zm12.5 0a2 2 0 0 1 0 2.828l-29 29a2 2 0 0 1-2.828-2.828l29-29a2 2 0 0 1 2.828 0zm12 0a2 2 0 0 1 0 2.828l-29 29a2 2 0 0 1-2.828-2.828l29-29a2 2 0 0 1 2.828 0zm12 0a2 2 0 0 1 0 2.828l-29 29a2 2 0 0 1-2.828-2.828l29-29a2 2 0 0 1 2.828 0zm10.5 1.5a2 2 0 0 1 0 2.828l-27.5 27.5a2 2 0 0 1-2.828-2.828l27.5-27.5a2 2 0 0 1 2.828 0zm3.5 8.5a2 2 0 0 1 0 2.828l-19 19a2 2 0 1 1-2.828-2.828l19-19a2 2 0 0 1 2.828 0zm.5 11.5a2 2 0 0 1 0 2.828l-7.5 7.5a2 2 0 1 1-2.828-2.828l7.5-7.5a2 2 0 0 1 2.828 0z" fill="url(#paint1_linear_173_2765)" filter="url(#filter5_d_173_2765)"/><g opacity=".1" fill="#0B1A46"><path fill-rule="evenodd" clip-rule="evenodd" d="M48.636 47.167a1.563 1.563 0 0 1-2.132.546l-.01-.006a6.245 6.245 0 0 0-.367-.186 8.127 8.127 0 0 0-1.125-.425c-.955-.282-2.102-.424-3.184-.094-2.44.743-4.489 2.729-5.547 5.602-.46 1.25-.363 2.467-.122 3.42.12.472.27.86.388 1.123.058.131.108.23.14.29l.033.062a1.563 1.563 0 0 1-.544 2.137 1.55 1.55 0 0 1-2.133-.528c2.209-1.328-.015-.025-.015-.025l-.025-.043a8.097 8.097 0 0 1-.301-.607c-.176-.393-.391-.95-.562-1.626-.34-1.344-.524-3.24.22-5.261 1.35-3.667 4.075-6.455 7.579-7.523 1.89-.576 3.707-.288 4.974.086a11.222 11.222 0 0 1 2.01.815 6.66 6.66 0 0 1 .172.095l.023.014c.736.439.973 1.394.528 2.134z"/><path d="M34.018 59.083s2.224-1.303.015.025l-.015-.025z"/><path fill-rule="evenodd" clip-rule="evenodd" d="M186.432 25.282a2.136 2.136 0 0 1 3.008.033l.011.011.075.072c.073.069.188.174.343.304.311.261.768.612 1.335.96 1.161.71 2.625 1.303 4.17 1.25 3.485-.119 6.89-2.015 9.303-5.434 1.05-1.486 1.353-3.128 1.371-4.47a9.518 9.518 0 0 0-.114-1.62 7.613 7.613 0 0 0-.082-.434c-.011-.045-.018-.077-.023-.093l-.002-.01a2.137 2.137 0 0 1 1.476-2.619 2.12 2.12 0 0 1 2.63 1.453c-3.386.97.011.038.011.038l.017.066.05.207c.039.172.087.409.133.7.093.58.18 1.391.167 2.345-.026 1.895-.454 4.463-2.151 6.867-3.08 4.364-7.663 7.08-12.666 7.25-2.698.092-4.996-.93-6.536-1.872a15.313 15.313 0 0 1-1.849-1.33 13.4 13.4 0 0 1-.664-.6l-.045-.044-.026-.026a2.12 2.12 0 0 1 .058-3.004z"/><path d="M209.944 14.723s-3.397.933-.011-.039l.011.04zM50 57a3 3 0 1 1-6 0 3 3 0 0 1 6 0zm28.897-38.221a3 3 0 1 1 1.557 5.794 3 3 0 0 1-1.557-5.794zm136 48a3 3 0 1 1 1.557 5.795 3 3 0 0 1-1.557-5.795zm-26.79-53.508a6.492 6.492 0 1 1 12.542 3.36 6.492 6.492 0 0 1-12.542-3.36z"/></g><defs><filter id="filter0_d_173_2765" x="148" y="162" width="14" height="14" filterUnits="userSpaceOnUse" color-interpolation-filters="sRGB"><feFlood flood-opacity="0" result="BackgroundImageFix"/><feColorMatrix in="SourceAlpha" values="0 0 0 0 0 0 0 0 0 0 0 0 0 0 0 0 0 0 127 0" result="hardAlpha"/><feOffset dx="2" dy="2"/><feColorMatrix values="0 0 0 0 1 0 0 0 0 1 0 0 0 0 1 0 0 0 1 0"/><feBlend in2="BackgroundImageFix" result="effect1_dropShadow_173_2765"/><feBlend in="SourceGraphic" in2="effect1_dropShadow_173_2765" result="shape"/></filter><filter id="filter1_d_173_2765" x="168" y="162" width="14" height="14" filterUnits="userSpaceOnUse" color-interpolation-filters="sRGB"><feFlood flood-opacity="0" result="BackgroundImageFix"/><feColorMatrix in="SourceAlpha" values="0 0 0 0 0 0 0 0 0 0 0 0 0 0 0 0 0 0 127 0" result="hardAlpha"/><feOffset dx="2" dy="2"/><feColorMatrix values="0 0 0 0 1 0 0 0 0 1 0 0 0 0 1 0 0 0 1 0"/><feBlend in2="BackgroundImageFix" result="effect1_dropShadow_173_2765"/><feBlend in="SourceGraphic" in2="effect1_dropShadow_173_2765" result="shape"/></filter><filter id="filter2_d_173_2765" x="188" y="162" width="14" height="14" filterUnits="userSpaceOnUse" color-interpolation-filters="sRGB"><feFlood flood-opacity="0" result="BackgroundImageFix"/><feColorMatrix in="SourceAlpha" values="0 0 0 0 0 0 0 0 0 0 0 0 0 0 0 0 0 0 127 0" result="hardAlpha"/><feOffset dx="2" dy="2"/><feColorMatrix values="0 0 0 0 1 0 0 0 0 1 0 0 0 0 1 0 0 0 1 0"/><feBlend in2="BackgroundImageFix" result="effect1_dropShadow_173_2765"/><feBlend in="SourceGraphic" in2="effect1_dropShadow_173_2765" result="shape"/></filter><filter id="filter3_d_173_2765" x="149" y="102" width="52" height="52" filterUnits="userSpaceOnUse" color-interpolation-filters="sRGB"><feFlood flood-opacity="0" result="BackgroundImageFix"/><feColorMatrix in="SourceAlpha" values="0 0 0 0 0 0 0 0 0 0 0 0 0 0 0 0 0 0 127 0" result="hardAlpha"/><feOffset dx="2" dy="2"/><feColorMatrix values="0 0 0 0 1 0 0 0 0 1 0 0 0 0 1 0 0 0 1 0"/><feBlend in2="BackgroundImageFix" result="effect1_dropShadow_173_2765"/><feBlend in="SourceGraphic" in2="effect1_dropShadow_173_2765" result="shape"/></filter><filter id="filter4_d_173_2765" x="36" y="145" width="93" height="31" filterUnits="userSpaceOnUse" color-interpolation-filters="sRGB"><feFlood flood-opacity="0" result="BackgroundImageFix"/><feColorMatrix in="SourceAlpha" values="0 0 0 0 0 0 0 0 0 0 0 0 0 0 0 0 0 0 127 0" result="hardAlpha"/><feOffset dx="2" dy="2"/><feColorMatrix values="0 0 0 0 0.921569 0 0 0 0 0.94902 0 0 0 0 0.980392 0 0 0 1 0"/><feBlend in2="BackgroundImageFix" result="effect1_dropShadow_173_2765"/><feBlend in="SourceGraphic" in2="effect1_dropShadow_173_2765" result="shape"/></filter><filter id="filter5_d_173_2765" x="34.5" y="102" width="97" height="35" filterUnits="userSpaceOnUse" color-interpolation-filters="sRGB"><feFlood flood-opacity="0" result="BackgroundImageFix"/><feColorMatrix in="SourceAlpha" values="0 0 0 0 0 0 0 0 0 0 0 0 0 0 0 0 0 0 127 0" result="hardAlpha"/><feOffset dx="2" dy="2"/><feColorMatrix values="0 0 0 0 0.921569 0 0 0 0 0.94902 0 0 0 0 0.980392 0 0 0 1 0"/><feBlend in2="BackgroundImageFix" result="effect1_dropShadow_173_2765"/><feBlend in="SourceGraphic" in2="effect1_dropShadow_173_2765" result="shape"/></filter><linearGradient id="paint0_linear_173_2765" x1="174" y1="105.141" x2="174" y2="145.194" gradientUnits="userSpaceOnUse"><stop stop-color="#3356A4"/><stop offset="1" stop-color="#0B1A46"/></linearGradient><linearGradient id="paint1_linear_173_2765" x1="82" y1="104.073" x2="82" y2="130.508" gradientUnits="userSpaceOnUse"><stop stop-color="#3356A4"/><stop offset="1" stop-color="#0B1A46"/></linearGradient></defs></svg>