<svg viewBox="0 0 736 1014" fill="none" xmlns="http://www.w3.org/2000/svg"><g clip-path="url(#clip0_41_165)"><circle cx="228.917" cy="506.917" r="506.917" fill="#fff"/><path fill-rule="evenodd" clip-rule="evenodd" d="M61.745 507.88c16.765-4.261 33.765 6.016 38.033 22.967l.062.232c.075.277.216.784.427 1.497a127.837 127.837 0 0 0 2.133 6.505 168.106 168.106 0 0 0 9.933 22.454c9.56 17.919 23.825 36.588 43.879 47.487 45.209 24.571 102.474 25.479 158.293-.813 24.271-11.432 40.191-30.47 50.289-47.752 5.005-8.567 8.368-16.356 10.443-21.887a105.003 105.003 0 0 0 2.136-6.236 52.41 52.41 0 0 0 .442-1.529c4.286-16.925 21.272-27.183 38.023-22.925 16.806 4.271 27.011 21.534 22.795 38.559-50.216-12.764-.149.581-.149.581s-.155.588-.262.978c-.214.78-.509 1.813-.892 3.072a169.2 169.2 0 0 1-3.44 10.078c-3.087 8.229-7.929 19.41-15.1 31.683-14.256 24.398-38.571 54.521-77.83 73.013-71.24 33.556-149.503 34.464-214.412-.813-35.005-19.025-56.74-49.517-69.415-73.278a232.008 232.008 0 0 1-13.759-31.115 191.864 191.864 0 0 1-3.21-9.81 131.778 131.778 0 0 1-1.08-3.866l-.133-.523c-4.217-17.025 5.989-34.288 22.794-38.559z" fill="#FF740D"/><path d="M438.484 547.02s-50.067-13.345.149-.581l-.149.581z" fill="#FF740D"/></g><defs><clipPath id="clip0_41_165"><path fill="#fff" d="M0 0H736V1014H0z"/></clipPath></defs></svg>