<svg viewBox="0 0 33 33" fill="none" xmlns="http://www.w3.org/2000/svg"><g clip-path="url(#clip0_181_4679)"><circle cx="16.045" cy="16.626" r="12.931" fill="#fff"/><mask id="a" style="mask-type:alpha" maskUnits="userSpaceOnUse" x="0" y="2" width="33" height="31"><path fill-rule="evenodd" clip-rule="evenodd" d="M32.239 16.206c0 8.858-7.181 16.038-16.039 16.038S.162 25.064.162 16.206c0-5.366 2.635-10.117 6.683-13.029.41-.294.755-.496 1.3-.658.476-.142 1.26-.168 1.26-.168h13.77s.68.044 1.092.168c.542.162.879.364 1.288.658 4.048 2.912 6.684 7.663 6.684 13.029zm-7.558.084a8.397 8.397 0 1 1-16.794 0 8.397 8.397 0 0 1 16.794 0z" fill="#D9D9D9"/></mask><g mask="url(#a)"><path fill-rule="evenodd" clip-rule="evenodd" d="M16.2 32.244c8.858 0 16.039-7.18 16.039-16.038S25.058.167 16.2.167.162 7.348.162 16.206 7.342 32.244 16.2 32.244zm.084-7.557a8.397 8.397 0 1 0 0-16.794 8.397 8.397 0 0 0 0 16.794z" fill="url(#paint0_linear_181_4679)"/><path d="M18.887 9.152L13.345-.756c4.367-1.26 10.16.503 13.771 3.443 3.611 2.94 7.311 8.995 6.298 15.702-1.177 7.796-6.046 12.932-14.107 14.947l-5.71-9.993 5.29-14.19z" fill="url(#paint1_linear_181_4679)"/></g><path fill-rule="evenodd" clip-rule="evenodd" d="M11.78 16.65a.8.8 0 0 1 .97.587l.002.006a1.985 1.985 0 0 0 .065.204c.052.146.134.35.254.573.243.457.607.933 1.119 1.21 1.153.628 2.614.65 4.038-.02.62-.291 1.025-.777 1.283-1.218a3.682 3.682 0 0 0 .33-.752l.002-.004a.8.8 0 0 1 .97-.585c.429.109.689.55.582.983-1.282-.325-.004.015-.004.015l-.007.025-.023.079a5.328 5.328 0 0 1-.473 1.065c-.363.622-.984 1.39-1.985 1.862-1.817.857-3.814.88-5.47-.02-.893-.486-1.447-1.264-1.77-1.87a5.915 5.915 0 0 1-.455-1.119l-.006-.023-.003-.014a.811.811 0 0 1 .581-.983z" fill="#FF740D"/><path d="M21.39 17.65s-1.277-.341.005-.016l-.004.015z" fill="#FF740D"/></g><defs><linearGradient id="paint0_linear_181_4679" x1="16.2" y1="2.183" x2="16.2" y2="27.878" gradientUnits="userSpaceOnUse"><stop stop-color="#3356A4"/><stop offset="1" stop-color="#0B1A46"/></linearGradient><linearGradient id="paint1_linear_181_4679" x1="19.151" y1="11" x2="19.151" y2="23.847" gradientUnits="userSpaceOnUse"><stop stop-color="#FD443C"/><stop offset="1" stop-color="#FF740D"/></linearGradient><clipPath id="clip0_181_4679"><path fill="#fff" d="M0 0H32.245V32.245H0z"/></clipPath></defs></svg>